{"title":"Fifth Harmony ft. Ty Dolla Sign - Work from Home (2016)","uid":13695436,"size":123598045,"categoryP":"video","categoryS":"music_videos","magnet":"?xt=urn:btih:16d9d4de8c33b1e53b0edebb594e015a5d5860cb&amp;dn=Fifth+Harmony+ft.+Ty+Dolla+Sign+-+Work+from+Home+%282016%29&amp;tr=udp%3A%2F%2Ftracker.leechers-paradise.org%3A6969&amp;tr=udp%3A%2F%2Fzer0day.ch%3A1337&amp;tr=udp%3A%2F%2Fopen.demonii.com%3A1337&amp;tr=udp%3A%2F%2Ftracker.coppersurfer.tk%3A6969&amp;tr=udp%3A%2F%2Fexodus.desync.com%3A6969","seeders":16,"leechers":1,"uploader":"MeRaDil","files":1,"time":1456685275,"description":"FIFTH HARMONY ft.TY DOLLA SIGN - WORK FROM HOME\r\n\r\n \nhttp://gifyu.com/images/5Harmony.png\r\n\r\n\r\nMEDIA INFO\r\nGeneral\r\nFifth Harmony ft. Ty Dolla Sign - Work from Home\r\nFormat                                   : MPEG-4\r\nFormat profile                           : Base Media\r\nCodec ID                                 : isom (isom/iso2/avc1/mp41)\r\nFile size                                : 118 MiB\r\nDuration                                 : 3mn 40s\r\nOverall bit rate                         : 4 494 Kbps\r\nMusicVid name                            : Work from Home\r\nAlbum                                    : 7/27\r\nPerformer                                : Fifth Harmony ft. Ty Dolla $ign\r\nMake                                     : MeRaDil\r\nGenre                                    : Pop\r\nContentType                              : Music Video\r\nRecorded date                            : 2016\r\nWriting application                      : Lavf56.32.100 / MeRaDil\r\nRating                                   : ***\r\nCover                                    : Yes\r\nArtist url                               : http://fifthharmonyofficial.com/\r\nRelease time                             : USA . february 26 . 2016\r\n\r\nVideo\r\nID                                       : 1\r\nFormat                                   : AVC\r\nFormat/Info                              : Advanced Video Codec\r\nFormat profile                           :   \r\nFormat settings, CABAC                   : Yes\r\nFormat settings, ReFrames                : 2 frames\r\nCodec ID                                 : avc1\r\nCodec ID/Info                            : Advanced Video Coding\r\nDuration                                 : 3mn 39s\r\nBit rate                                 : 4 216 Kbps\r\nWidth                                    : 1 920 pixels\r\nHeight                                   : 1 080 pixels\r\nDisplay aspect ratio                     : 16:9\r\nFrame rate mode                          : Variable\r\nFrame rate                               : 23.976 (24000/1001) fps\r\nColor space                              : YUV\r\nChroma subsampling                       : 4:2:0\r\nBit depth                                : 8 bits\r\nScan type                                : Progressive\r\nBits/(Pixel*Frame)                       : 0.085\r\nStream size                              : 111 MiB (94%)\r\nColor range                              : Limited\r\n\r\nAudio\r\nID                                       : 2\r\nFormat                                   : AAC\r\nFormat/Info                              : Advanced Audio Codec\r\nFormat profile                           : LC\r\nCodec ID                                 : 40\r\nDuration                                 : 3mn 40s\r\nBit rate mode                            : Constant\r\nBit rate                                 : 256 Kbps\r\nChannel(s)                               : 2 channels\r\nChannel positions                        : Front: L R\r\nSampling rate                            : 44.1 KHz\r\nFrame rate                               : 43.066 fps (1024 spf)\r\nCompression mode                         : Lossy\r\nStream size                              : 6.71 MiB (6%)\r\nDefault                                  : Yes\r\nAlternate group                          : 1","torrent":{"xt":"urn:btih:16d9d4de8c33b1e53b0edebb594e015a5d5860cb","amp;dn":"Fifth+Harmony+ft.+Ty+Dolla+Sign+-+Work+from+Home+%282016%29","amp;tr":["udp%3A%2F%2Ftracker.leechers-paradise.org%3A6969","udp%3A%2F%2Fzer0day.ch%3A1337","udp%3A%2F%2Fopen.demonii.com%3A1337","udp%3A%2F%2Ftracker.coppersurfer.tk%3A6969","udp%3A%2F%2Fexodus.desync.com%3A6969"],"infoHash":"16d9d4de8c33b1e53b0edebb594e015a5d5860cb","infoHashBuffer":{"type":"Buffer","data":[22,217,212,222,140,51,177,229,59,14,222,187,89,78,1,90,93,88,96,203]},"announce":[],"urlList":[]}}